/* XPM */
static char *icon[] = {
/* columns rows colors chars-per-pixel */
"32 32 4 1 ",
"  c #490000",
". c #920000",
"X c red",
"o c None",
/* pixels */
"oooooooooooooooooooooooooooooooo",
"oooooooooooooooooooooooooooooooo",
"oooooooooooooooooooooooooooooooo",
"oooooooooooooooooooooooooooooooo",
"oooooooooooooooooooooooooooooooo",
"ooo     oooooooooooooooo     ooo",
"ooo ... oooooooooooooooo ... ooo",
"ooo .X. oooooooooooooooo .X. ooo",
"ooo .X. oooooooooooooooo .X. ooo",
"ooo .X.                  .X. ooo",
"ooo .X....................X. ooo",
"ooo .XXXXXXXXXXXXXXXXXXXXXX. ooo",
"ooo ...........XX........... ooo",
"ooo           .XX.           ooo",
"ooooooooooooo .XX. ooooooooooooo",
"ooooooooooooo .XX. ooooooooooooo",
"ooooooooooooo .XX. ooooooooooooo",
"ooooooooooooo .XX. ooooooooooooo",
"ooooooooooooo .XX. ooooooooooooo",
"ooooooooooooo .XX. ooooooooooooo",
"ooooooooooooo .XX. ooooooooooooo",
"ooooooooooooo .XX. ooooooooooooo",
"ooooooooooooo .XX. ooooooooooooo",
"ooooooooooooo .XX. ooooooooooooo",
"ooooooooooooo .XX. ooooooooooooo",
"ooooooooooooo .XX. ooooooooooooo",
"ooooooooooooo .XX. ooooooooooooo",
"ooooooooooooo .... ooooooooooooo",
"ooooooooooooo      ooooooooooooo",
"oooooooooooooooooooooooooooooooo",
"oooooooooooooooooooooooooooooooo",
"oooooooooooooooooooooooooooooooo"
};
