/* XPM */
static char *icon_maped[] = {
/* columns rows colors chars-per-pixel */
"32 32 32 1 ",
"  c black",
". c #191919",
"X c gray15",
"o c gray20",
"O c #490000",
"+ c #65563C",
"@ c gray25",
"# c #4C4C4C",
"$ c gray35",
"% c gray40",
"& c #920000",
"* c red",
"= c #8E7954",
"- c #9C855D",
"; c #A28A60",
": c #A88F64",
"> c #A99065",
", c #B3986A",
"< c #B89D6E",
"1 c #BA9E6E",
"2 c #C5A775",
"3 c #CCAE79",
"4 c #D1B27C",
"5 c #D7B780",
"6 c gray89",
"7 c gray91",
"8 c gray92",
"9 c gray95",
"0 c gray97",
"q c gray98",
"w c gray100",
"e c None",
/* pixels */
"OOOOOeeeeeeeeeeeeeeeeOOOOOeeeeee",
"O&&&OeeeeeeeeeeeeeeeeO&&&Oeeeeee",
"O&*&OeeeeeeeeeeeeeeeeO&*&Oeeeeee",
"O&*&OeeeeeeeeeeeeeeeeO&*&Oeeeeee",
"O&*&OOOOOOOOOOOOOOOOOO&*&Oeeeeee",
"O&*&&&&&&&&&&&&&&&&&&&&*&Oeeeeee",
"O&**********************&Oeeeeee",
"O&&&&&&&&&&&**&&&&&&&&&&&Oeeeeee",
"OOOOOOOOOOO&**&OOOOOOOOOOOeeeeee",
"eeeeeeeeeeO&**&Oeeeeeeeeeeeeeeee",
"eeeeeeeeeeO&**&Oeeeeeeeeeeeeeeee",
"eeeeeeeeeewq*<<Oe<<e<<<ee<<<eeee",
"eeeeeeee9w9w<221e<2<2<e<<22<,eee",
"eeeeeeee979q2211<21242<2252<>,ee",
"eeeeeee9w7w9<<2245212524512----e",
"eeeeeee9q7w<<24453321222121151-e",
"eeeeee9w8q9<1253322111112+221-ee",
"eeeeee9w7wO<123221211112+=++2+-e",
"eeeeeew7w9O&<12112+22122+===+=-e",
"eeeee9w7weO&<1112+=++2++=;;==-ee",
"eeeee079eeO<22112+===+==;>>;=-ee",
"eeeee6weeeO<++22+==;==;;;;;>;=-e",
"ee#%#o.eeeO<==++=;;;;;;;===;>;-e",
"eee$@XeeeeOO<==+=;>>>>>=+++=;--e",
"eee$@Xeeeeeee<===;>>;;;+225+-e-e",
"eeo#o. eeee<<;==+=;;====+22+=-ee",
"eo#%#o. eee<>==+2+==++=;=++=;>-e",
"eo#%#o. eeee<=+22+====;>;==;>-ee",
"eo#%#o. eee<>;=++=;;;;>>>;;>>>-e",
"eeo#o. eeee<->;==->>>>-->>>>->-e",
"eeeeeeeeeee<e----e----ee----e--e",
"eeeeeeeeeeeeeeeeeeeeeeeeeeeeeeee"
};
